<?xml version="1.0" encoding="UTF-8"?>
<svg width="29px" height="29px" viewBox="0 0 29 29" version="1.1" xmlns="http://www.w3.org/2000/svg" xmlns:xlink="http://www.w3.org/1999/xlink">
    <!-- Generator: Sketch 52.5 (67469) - http://www.bohemiancoding.com/sketch -->
    <title>del</title>
    <desc>Created with Sketch.</desc>
    <g id="Page-1" stroke="none" stroke-width="1" fill="none" fill-rule="evenodd">
        <g id="iPhone-8-Copy" transform="translate(-221.000000, -616.000000)" fill-rule="nonzero">
            <g id="Group-5" transform="translate(0.000000, 376.000000)">
                <g id="del" transform="translate(221.000000, 240.000000)">
                    <rect id="矩形-copy" x="0" y="0" width="29" height="29"></rect>
                    <path d="M17.1066017,15.1066017 L19.5814755,17.5814755 C19.7767376,17.7767376 19.7767376,18.0933201 19.5814755,18.2885822 C19.3862133,18.4838444 19.0696308,18.4838444 18.8743687,18.2885822 L16.3994949,15.8137085 L13.9246212,18.2885822 C13.7293591,18.4838444 13.4127766,18.4838444 13.2175144,18.2885822 C13.0222523,18.0933201 13.0222523,17.7767376 13.2175144,17.5814755 L15.6923882,15.1066017 L13.2175144,12.631728 C13.0222523,12.4364658 13.0222523,12.1198833 13.2175144,11.9246212 C13.4127766,11.7293591 13.7293591,11.7293591 13.9246212,11.9246212 L16.3994949,14.3994949 L18.8743687,11.9246212 C19.0696308,11.7293591 19.3862133,11.7293591 19.5814755,11.9246212 C19.7767376,12.1198833 19.7767376,12.4364658 19.5814755,12.631728 L17.1066017,15.1066017 Z M9.64644661,22.3535534 L2.64644661,15.3535534 C2.45118446,15.1582912 2.45118446,14.8417088 2.64644661,14.6464466 L9.64644661,7.64644661 C9.7402148,7.55267842 9.86739176,7.5 10,7.5 L23,7.5 C23.8284271,7.5 24.5,8.17157288 24.5,9 L24.5,21 C24.5,21.8284271 23.8284271,22.5 23,22.5 L10,22.5 C9.86739176,22.5 9.7402148,22.4473216 9.64644661,22.3535534 Z M10.2071068,21.5 L23,21.5 C23.2761424,21.5 23.5,21.2761424 23.5,21 L23.5,9 C23.5,8.72385763 23.2761424,8.5 23,8.5 L10.2071068,8.5 L3.70710678,15 L10.2071068,21.5 Z" id="Combined-Shape" fill="#101010"></path>
                </g>
            </g>
        </g>
    </g>
</svg>