<?xml version="1.0" encoding="UTF-8"?>
<svg width="80px" height="80px" viewBox="0 0 80 80" version="1.1" xmlns="http://www.w3.org/2000/svg" xmlns:xlink="http://www.w3.org/1999/xlink">
    <!-- Generator: Sketch 52.5 (67469) - http://www.bohemiancoding.com/sketch -->
    <title>gou</title>
    <desc>Created with Sketch.</desc>
    <g id="Page-1" stroke="none" stroke-width="1" fill="none" fill-rule="evenodd">
        <g id="iPhone-8-Copy-3" transform="translate(-149.000000, -168.000000)" fill-rule="nonzero">
            <g id="gou" transform="translate(149.000000, 168.000000)">
                <rect id="矩形" x="0" y="0" width="80" height="80"></rect>
                <path d="M32.1084945,53.0699288 C37.1656629,47.4136717 42.2508541,42.248328 47.3640681,37.5738976 C54.4506994,31.0953961 62.7876124,24.3025721 72.3748072,17.1954257 C72.8175239,16.8672341 73.4409858,16.9620851 73.7673492,17.4072825 C73.7860319,17.4327679 73.8035023,17.4591299 73.8197014,17.4862798 L75.8580613,20.9025366 C76.08678,21.285871 76.0351575,21.7752204 75.731552,22.1017677 C67.2362882,31.2389681 59.7722233,39.7345561 53.3393571,47.5885317 C47.0797293,55.2309981 41.6560979,62.8734645 37.068463,70.5159309 C36.784225,70.9894433 36.1720858,71.1415862 35.701214,70.8557529 C35.6300178,70.8125346 35.5644851,70.7605188 35.5061463,70.7009199 L33.4452977,68.5955603 L33.421727,68.6192632 L10.2916869,45.3595797 C9.90277102,44.9684839 9.90277102,44.3343924 10.2916869,43.9432966 C10.3129713,43.9218929 10.3352097,43.9014706 10.3583337,43.8820927 L14.8681821,40.102821 C15.2330865,39.7970295 15.7619578,39.7929544 16.1314792,40.0930868 L32.1084945,53.0699288 Z" id="路径" fill="#F58423"></path>
            </g>
        </g>
    </g>
</svg>