<?xml version="1.0" encoding="UTF-8"?>
<svg width="29px" height="29px" viewBox="0 0 29 29" version="1.1" xmlns="http://www.w3.org/2000/svg" xmlns:xlink="http://www.w3.org/1999/xlink">
    <!-- Generator: Sketch 52.5 (67469) - http://www.bohemiancoding.com/sketch -->
    <title>jia</title>
    <desc>Created with Sketch.</desc>
    <g id="Page-1" stroke="none" stroke-width="1" fill="none" fill-rule="evenodd">
        <g id="iPhone-8-Copy" transform="translate(-314.000000, -472.000000)" fill-rule="nonzero">
            <g id="Group-5" transform="translate(0.000000, 376.000000)">
                <g id="jia" transform="translate(314.000000, 96.000000)">
                    <rect id="矩形" x="0" y="0" width="29" height="29"></rect>
                    <path d="M14,14 L14,6.5 C14,6.22385763 14.2238576,6 14.5,6 C14.7761424,6 15,6.22385763 15,6.5 L15,14 L22.5,14 C22.7761424,14 23,14.2238576 23,14.5 C23,14.7761424 22.7761424,15 22.5,15 L15,15 L15,22.5 C15,22.7761424 14.7761424,23 14.5,23 C14.2238576,23 14,22.7761424 14,22.5 L14,15 L6.5,15 C6.22385763,15 6,14.7761424 6,14.5 C6,14.2238576 6.22385763,14 6.5,14 L14,14 Z" id="Path" fill="#101010"></path>
                </g>
            </g>
        </g>
    </g>
</svg>