<?xml version="1.0" encoding="UTF-8"?>
<svg width="48px" height="48px" viewBox="0 0 48 48" version="1.1" xmlns="http://www.w3.org/2000/svg" xmlns:xlink="http://www.w3.org/1999/xlink">
    <!-- Generator: Sketch 52.5 (67469) - http://www.bohemiancoding.com/sketch -->
    <title>jilu</title>
    <desc>Created with Sketch.</desc>
    <g id="Page-1" stroke="none" stroke-width="1" fill="none" fill-rule="evenodd">
        <g id="iPhone-8" transform="translate(-84.000000, -588.000000)" fill-rule="nonzero">
            <g id="Group-4" transform="translate(65.000000, 583.000000)">
                <g id="jilu" transform="translate(19.000000, 5.000000)">
                    <rect id="juxing5" x="0" y="0" width="48" height="48"></rect>
                    <path d="M36,25.8320874 C34.7750753,25.296895 33.4222094,25 32,25 C29.2026059,25 26.6734905,26.1486378 24.8585672,28 L15.5,28 C14.6715729,28 14,28.6715729 14,29.5 C14,30.3284271 14.6715729,31 15.5,31 L22.8320874,31 C22.296895,32.2249247 22,33.5777906 22,35 C22,36.8214357 22.4869714,38.5291332 23.337822,40 L11,40 C9.8954305,40 9,39.1045695 9,38 L9,10 C9,8.8954305 9.8954305,8 11,8 C17.4444444,8 22.1111111,8 25,8 C26.3631313,8 27,8.75525317 27,10 C27,11.3333333 27,13 27,15 C27,16.1045695 27.8954305,17 29,17 C31,17 32.6666667,17 34,17 C35.3276368,17 36,17.7887679 36,19 L36,25.8320874 Z M15.5,21 C14.6715729,21 14,21.6715729 14,22.5 C14,23.3284271 14.6715729,24 15.5,24 L30.5,24 C31.3284271,24 32,23.3284271 32,22.5 C32,21.6715729 31.3284271,21 30.5,21 L15.5,21 Z M34.8050614,14 C33.8836231,14 32.5014656,14 30.658589,14 C29.7425756,14 29,13.2740129 29,12.3784623 C29,10.5767538 29,9.22547238 29,8.32461811 C29,7.96461219 29.1209011,7.90404488 29.3627033,8.14291619 L32.1979844,11.0133478 L34.8389095,13.6870139 C35.064442,13.8956713 35.0531593,14 34.8050614,14 Z M32,43 C27.581722,43 24,39.418278 24,35 C24,30.581722 27.581722,27 32,27 C36.418278,27 40,30.581722 40,35 C40,39.418278 36.418278,43 32,43 Z M33,34 L33,31 C33,30.4477153 32.5522847,30 32,30 C31.4477153,30 31,30.4477153 31,31 L31,35 C31,35.5522847 31.4477153,36 32,36 L36,36 C36.5522847,36 37,35.5522847 37,35 C37,34.4477153 36.5522847,34 36,34 L33,34 Z" fill="#F58423"></path>
                </g>
            </g>
        </g>
    </g>
</svg>