<?xml version="1.0" encoding="UTF-8"?>
<svg width="48px" height="48px" viewBox="0 0 48 48" version="1.1" xmlns="http://www.w3.org/2000/svg" xmlns:xlink="http://www.w3.org/1999/xlink">
    <!-- Generator: Sketch 52.5 (67469) - http://www.bohemiancoding.com/sketch -->
    <title>qidai</title>
    <desc>Created with Sketch.</desc>
    <g id="Page-1" stroke="none" stroke-width="1" fill="none" fill-rule="evenodd">
        <g id="iPhone-8" transform="translate(-243.000000, -588.000000)" fill-rule="nonzero">
            <g id="Group-7" transform="translate(226.000000, 583.000000)">
                <g id="qidai" transform="translate(17.000000, 5.000000)">
                    <rect id="矩形" x="0" y="0" width="48" height="48"></rect>
                    <path d="M20.6953176,24.9008286 C17.904255,23.2697719 15.6049125,20.030965 14.267381,16.6075049 C13.527832,14.7146024 13.0823293,12.7652474 13.010337,11 L11.5,11 C10.6715729,11 10,10.3284271 10,9.5 C10,8.67157288 10.6715729,8 11.5,8 L37.5,8 C38.3284271,8 39,8.67157288 39,9.5 C39,10.3284271 38.3284271,11 37.5,11 L35.989663,11 C35.9216976,12.6665075 35.5208382,14.4971024 34.853946,16.2893762 C33.5368447,19.8290883 31.1820666,23.2193268 28.3046824,24.9008286 C32.4087205,27.2991693 35.4495916,33.1736896 35.9327558,38 L37.5,38 C38.3284271,38 39,38.6715729 39,39.5 C39,40.3284271 38.3284271,41 37.5,41 L11.5,41 C10.6715729,41 10,40.3284271 10,39.5 C10,38.6715729 10.6715729,38 11.5,38 L13.0672442,38 C13.5504084,33.1736896 16.5912795,27.2991693 20.6953176,24.9008286 Z M18.5,34 C17.6715729,34 17,34.6715729 17,35.5 C17,36.3284271 17.6715729,37 18.5,37 L30.5,37 C31.3284271,37 32,36.3284271 32,35.5 C32,34.6715729 31.3284271,34 30.5,34 L18.5,34 Z M24.5,21 C25.3284271,21 26,20.3284271 26,19.5 C26,18.6715729 25.3284271,18 24.5,18 C23.6715729,18 23,18.6715729 23,19.5 C23,20.3284271 23.6715729,21 24.5,21 Z M24.5,24 C23.6715729,24 23,24.6715729 23,25.5 L23,28.5 C23,29.3284271 23.6715729,30 24.5,30 C25.3284271,30 26,29.3284271 26,28.5 L26,25.5 C26,24.6715729 25.3284271,24 24.5,24 Z" id="Shape" fill="#9B9E9F"></path>
                </g>
            </g>
        </g>
    </g>
</svg>