<?xml version="1.0" encoding="UTF-8"?>
<svg width="88px" height="89px" viewBox="0 0 88 89" version="1.1" xmlns="http://www.w3.org/2000/svg" xmlns:xlink="http://www.w3.org/1999/xlink">
    <!-- Generator: Sketch 52.5 (67469) - http://www.bohemiancoding.com/sketch -->
    <title>yiding</title>
    <desc>Created with Sketch.</desc>
    <defs>
        <filter x="-7.0%" y="-16.7%" width="114.0%" height="133.3%" filterUnits="objectBoundingBox" id="filter-1">
            <feOffset dx="0" dy="3" in="SourceAlpha" result="shadowOffsetOuter1"></feOffset>
            <feGaussianBlur stdDeviation="4.5" in="shadowOffsetOuter1" result="shadowBlurOuter1"></feGaussianBlur>
            <feColorMatrix values="0 0 0 0 0   0 0 0 0 0   0 0 0 0 0  0 0 0 0.233893795 0" type="matrix" in="shadowBlurOuter1" result="shadowMatrixOuter1"></feColorMatrix>
            <feMerge>
                <feMergeNode in="shadowMatrixOuter1"></feMergeNode>
                <feMergeNode in="SourceGraphic"></feMergeNode>
            </feMerge>
        </filter>
    </defs>
    <g id="Page-1" stroke="none" stroke-width="1" fill="none" fill-rule="evenodd">
        <g id="iPhone-8" transform="translate(-77.000000, -288.000000)" fill-rule="nonzero">
            <g id="Group-2" filter="url(#filter-1)" transform="translate(23.000000, 269.000000)">
                <g id="yiding" transform="translate(54.000000, 19.000000)">
                    <rect id="fanwei2" x="0" y="0" width="88" height="88"></rect>
                    <path d="M21.0948683,38.2150744 L14.6558822,44.6979623 L13.5802878,43.6150343 C12.8065707,42.8360419 12.8065707,41.5730458 13.5802878,40.7940534 L41.5990613,12.5842443 C42.3727784,11.8052519 43.6272216,11.8052519 44.4009387,12.5842443 L72.4197122,40.7940534 C73.1934293,41.5730458 73.1934293,42.8360419 72.4197122,43.6150343 L71.3441178,44.6979623 L65.672464,38.9876384 L65.672464,50.0710811 C65.672464,50.8973273 65.007195,51.5671322 64.1865441,51.5671322 C63.3658932,51.5671322 62.7006243,50.8973273 62.7006243,50.0710811 L62.7006243,35.9955363 L43,16.1605907 L24.066708,35.2229723 L24.066708,74.0078979 L49.8226522,74.0078979 C50.643303,74.0078979 51.308572,74.6777028 51.308572,75.503949 C51.308572,76.3301951 50.643303,77 49.8226522,77 L23.0760947,77 C21.9818936,77 21.0948683,76.1069268 21.0948683,75.0052653 L21.0948683,38.2150744 Z M38,33 L50,33 C51.1045695,33 52,33.8954305 52,35 L52,47 C52,48.1045695 51.1045695,49 50,49 L38,49 C36.8954305,49 36,48.1045695 36,47 L36,35 C36,33.8954305 36.8954305,33 38,33 Z M39,36 L39,46 L49,46 L49,36 L39,36 Z M62,77 C55.372583,77 50,71.627417 50,65 C50,58.372583 55.372583,53 62,53 C68.627417,53 74,58.372583 74,65 C74,71.627417 68.627417,77 62,77 Z M62,75 C67.5228475,75 72,70.5228475 72,65 C72,59.4771525 67.5228475,55 62,55 C56.4771525,55 52,59.4771525 52,65 C52,70.5228475 56.4771525,75 62,75 Z M60.9903764,67.6908419 L66.3750354,62.2801479 C66.7467685,61.9066174 67.349467,61.9066174 67.7212002,62.2801479 C68.0929333,62.6536783 68.0929333,63.2592909 67.7212002,63.6328214 L61.6634588,69.7198521 C61.4775923,69.9066174 61.2339843,70 60.9903764,70 C60.7467685,70 60.5031606,69.9066174 60.3172941,69.7198521 L56.2787998,65.6618316 C55.9070667,65.2883011 55.9070667,64.6826886 56.2787998,64.3091581 C56.650533,63.9356276 57.2532315,63.9356276 57.6249646,64.3091581 L60.9903764,67.6908419 Z" id="Combined-Shape" fill="#FFFFFF"></path>
                </g>
            </g>
        </g>
    </g>
</svg>