<?xml version="1.0" encoding="UTF-8"?>
<svg width="88px" height="89px" viewBox="0 0 88 89" version="1.1" xmlns="http://www.w3.org/2000/svg" xmlns:xlink="http://www.w3.org/1999/xlink">
    <!-- Generator: Sketch 52.5 (67469) - http://www.bohemiancoding.com/sketch -->
    <title>zizhu</title>
    <desc>Created with Sketch.</desc>
    <defs>
        <filter x="-7.0%" y="-16.7%" width="114.0%" height="133.3%" filterUnits="objectBoundingBox" id="filter-1">
            <feOffset dx="0" dy="3" in="SourceAlpha" result="shadowOffsetOuter1"></feOffset>
            <feGaussianBlur stdDeviation="4.5" in="shadowOffsetOuter1" result="shadowBlurOuter1"></feGaussianBlur>
            <feColorMatrix values="0 0 0 0 0   0 0 0 0 0   0 0 0 0 0  0 0 0 0.299252717 0" type="matrix" in="shadowBlurOuter1" result="shadowMatrixOuter1"></feColorMatrix>
            <feMerge>
                <feMergeNode in="shadowMatrixOuter1"></feMergeNode>
                <feMergeNode in="SourceGraphic"></feMergeNode>
            </feMerge>
        </filter>
    </defs>
    <g id="Page-1" stroke="none" stroke-width="1" fill="none" fill-rule="evenodd">
        <g id="iPhone-8" transform="translate(-77.000000, -431.000000)" fill-rule="nonzero">
            <g id="Group-3" filter="url(#filter-1)" transform="translate(23.000000, 409.000000)">
                <g id="zizhu" transform="translate(54.000000, 22.000000)">
                    <rect id="fanwei" x="0" y="0" width="88" height="88"></rect>
                    <path d="M67.1730769,53.5671642 L67.1730769,15.6268657 L23.8269231,15.6268657 L23.8269231,66.5223881 L50.2115385,66.5223881 C52.033016,66.5223881 53.5096154,67.9724509 53.5096154,69.761194 C53.5096154,71.5499372 52.033016,73 50.2115385,73 L23.0126091,73 C21.9010758,73 21,72.1125154 21,71.0177477 L21,12.9822523 C21,11.8874846 21.9010758,11 23.0126091,11 L67.9873909,11 C69.0989242,11 70,11.8874846 70,12.9822523 L70,53.5671642 C70,54.3337684 69.3671717,54.9552239 68.5865385,54.9552239 C67.8059052,54.9552239 67.1730769,54.3337684 67.1730769,53.5671642 Z M46.5,71 C47.3284271,71 48,70.3284271 48,69.5 C48,68.6715729 47.3284271,68 46.5,68 C45.6715729,68 45,68.6715729 45,69.5 C45,70.3284271 45.6715729,71 46.5,71 Z M57.9306821,62.6074387 L53.644054,51.4836461 C53.2809716,50.5414479 53.7559954,49.4861849 54.7068845,49.1225733 C55.6519073,48.7612049 56.7141929,49.2259539 57.0795657,50.1606192 L57.0827147,50.1687325 L60.3833797,58.7339524 C60.5081182,58.1245202 60.9446389,57.5941446 61.5795511,57.3728124 C62.513827,57.0471211 63.5381579,57.5321754 63.8674584,58.4562116 C63.8703097,58.4642126 63.873103,58.4722337 63.875838,58.4802744 L63.9874581,58.8084284 C63.8943437,57.9808668 64.3851535,57.1708424 65.21112,56.8829139 C66.1470484,56.5566531 67.1731858,57.0425709 67.5030621,57.9682415 C67.5059183,57.9762566 67.5087164,57.9842918 67.5114562,57.9923465 L67.5588054,58.1315521 C67.6252079,57.4321725 68.0979566,56.8043026 68.8127212,56.5670218 C69.7451671,56.2574771 70.7547801,56.7541537 71.067755,57.67638 C71.0713632,57.6870119 71.0748686,57.6976777 71.0782708,57.7083759 L71.2858391,58.3610763 C71.3026366,58.3745117 71.3145497,58.3895568 71.3213719,58.4062571 C71.6709189,59.2619342 74.816842,66.9630279 74.9977795,69.8767919 C75.1787169,72.7905558 64.2481175,78.153758 61.9822259,75.0777824 C59.7163343,72.0018067 55.0168947,66.984684 52.2328465,65.1111182 C49.4487983,63.2375523 51.8700184,60.2068486 54.6540666,62.0804144 C55.95738,62.9574982 57.2871173,63.7495686 58.6432787,64.4566257 L58.4848937,64.0456169 L57.9562713,62.7515705 C57.9371705,62.7048124 57.9288296,62.6567269 57.9306821,62.6074387 Z M32.5,27 L57.5,27 C58.3284271,27 59,27.6715729 59,28.5 C59,29.3284271 58.3284271,30 57.5,30 L32.5,30 C31.6715729,30 31,29.3284271 31,28.5 C31,27.6715729 31.6715729,27 32.5,27 Z M32.5,33 L57.5,33 C58.3284271,33 59,33.6715729 59,34.5 C59,35.3284271 58.3284271,36 57.5,36 L32.5,36 C31.6715729,36 31,35.3284271 31,34.5 C31,33.6715729 31.6715729,33 32.5,33 Z M32.5,39 L57.5,39 C58.3284271,39 59,39.6715729 59,40.5 C59,41.3284271 58.3284271,42 57.5,42 L32.5,42 C31.6715729,42 31,41.3284271 31,40.5 C31,39.6715729 31.6715729,39 32.5,39 Z" id="Combined-Shape" fill="#FFFFFF"></path>
                </g>
            </g>
        </g>
    </g>
</svg>